<svg xmlns="http://www.w3.org/2000/svg" height="40" viewBox="0 -960 960 960" width="40"><path d="M192.319-104.173q-36.44 0-62.293-25.853t-25.853-62.293v-575.362q0-36.595 25.853-62.559t62.293-25.964h246.71q18.5 0 31.286 13.042 12.787 13.041 12.787 31.558t-12.787 31.22q-12.786 12.703-31.286 12.703h-246.71v575.362h246.71q18.5 0 31.286 12.82 12.787 12.82 12.787 31.37t-12.787 31.253q-12.786 12.703-31.286 12.703h-246.71ZM687.84-435.927H400.304q-18.5 0-31.286-12.82-12.786-12.82-12.786-31.37t12.786-31.253q12.786-12.703 31.286-12.703h286.203l-68.261-68.26q-12.869-12.949-12.536-30.953.333-18.004 13.203-30.83 12.87-13.392 30.978-13.276 18.108.116 31.573 13.319l143.87 143.87q12.638 13.34 12.638 30.938t-12.638 30.801L682.131-305.261q-12.881 13.203-30.876 12.986-17.994-.217-31.269-13.42-12.609-13.015-12.741-31.229-.132-18.214 13.146-31.178l67.449-67.825Z"/></svg>